<svg width="52" height="52" viewBox="0 0 52 52" fill="none" xmlns="http://www.w3.org/2000/svg">
<rect width="52" height="52" rx="26" fill="#F6F0EC"/>
<path d="M12.4274 21.5715C13.1181 21.5033 13.9182 21.9117 14.5817 22.2074C18.3337 23.8799 20.7799 26.8738 22.3051 30.5826C22.681 30.4399 23.4555 29.8516 23.8522 29.5851C25.214 28.6706 27.2735 28.0126 28.9099 27.9419C30.4491 27.8754 32.1166 27.948 33.6675 27.9095C34.8621 27.88 36.0284 27.8603 37.2258 27.8994C37.8675 27.8968 38.4467 27.8665 39.0944 27.8989C39.8559 27.9369 40.2058 28.7991 39.7063 29.3533C39.3766 29.7191 38.5605 29.6124 38.0802 29.6134C36.2505 29.6175 34.4067 29.6221 32.576 29.6254C28.7518 29.5697 25.9471 29.5229 22.9825 32.3608C21.8348 33.4594 20.8187 35.3506 20.6085 36.9313C20.4925 37.8036 20.5147 39.1886 20.5065 40.1028C20.4928 41.0364 20.8843 44.0082 19.7766 44.2586C19.5389 44.3123 18.8604 44.149 18.8356 43.8335C18.6072 40.9293 19.0381 37.9311 18.4786 35.0519C17.8745 31.9344 16.1862 28.8729 13.4445 27.1603C12.8239 26.7236 11.6466 26.4681 12.0409 25.4479C12.4271 24.598 13.4385 25.1744 13.9505 25.4525C15.9652 26.5471 17.5552 28.2439 18.6056 30.2818C19.1527 31.3431 19.564 32.6429 20.0185 33.7964C20.3356 32.9663 21.1052 32.3591 20.7607 31.4565C19.5884 28.385 17.4944 25.7318 14.6093 24.1081C13.898 23.7078 13.1694 23.4371 12.4663 23.052C11.9562 22.7685 11.8629 21.9528 12.4274 21.5715Z" fill="#A8B8A0"/>
<path d="M33.8586 7.74495L37.3729 7.74918C37.5253 7.74956 37.6806 7.74252 37.8389 7.75043C38.632 7.79002 39.9803 7.47402 39.8558 8.73743C39.8183 9.11815 39.6628 9.24316 39.3827 9.46076C38.5742 9.56196 36.3369 9.5073 35.4384 9.50415C32.9033 9.47799 30.368 9.47584 27.8328 9.4977C23.2136 9.52991 20.0348 10.6288 16.7543 13.9561C16.4668 14.3386 16.0942 14.7293 15.7573 15.1227C15.3796 15.5638 14.9135 16.6603 14.3234 16.7588C14.0974 16.7965 13.7125 16.7049 13.5435 16.5485C13.4291 16.4427 13.351 16.2813 13.3569 16.1191C13.4287 15.1286 15.0888 13.1729 15.7285 12.5235C21.2513 6.91661 26.8 7.81798 33.8586 7.74495Z" fill="#A8B8A0"/>
<path d="M35.4548 31.0249C36.5793 31.0026 37.7287 30.9905 38.8521 31.0227C39.9786 31.055 40.4166 31.9782 39.4736 32.7585C38.0661 32.9302 36.5868 32.8402 35.1698 32.8466C33.7372 32.8531 32.3179 32.8726 30.8785 32.8399C28.7102 32.7907 26.9979 32.8901 25.3374 34.5023C23.3721 36.4105 23.5789 38.736 23.5863 41.2837C23.5931 41.9467 23.6373 42.8688 23.5672 43.4987C23.4576 44.4834 21.8813 44.5527 21.9501 43.2382C22.1353 39.695 21.2069 36.3013 23.932 33.4406C27.0675 30.1488 31.3717 31.2129 35.4548 31.0249Z" fill="#A8B8A0"/>
<path d="M26.3928 12.6409C25.9936 12.6247 24.9944 12.8637 24.5817 12.9455C23.0824 13.2426 21.1681 14.2907 19.9666 15.2552C19.3593 15.7433 18.8139 16.304 18.3426 16.9246C18.1447 17.1831 17.9579 17.4924 17.7496 17.7326C17.3752 18.1639 16.3537 17.8809 16.2901 17.3138C16.2444 16.9066 16.7616 16.2374 16.9729 15.9022C18.4737 13.9088 20.7205 12.3769 23.09 11.6009C24.9799 10.9819 27.017 10.9379 28.9791 10.9402L33.3096 10.947L36.9081 10.9433C37.5843 10.942 38.3947 10.9007 39.0524 10.9932C40.1905 11.1533 40.2765 12.4614 38.9469 12.5773C38.4837 12.5162 37.2882 12.5412 36.7823 12.5391C35.3176 12.5306 33.8529 12.53 32.3881 12.5374L29.089 12.5258C28.4239 12.5227 27.0249 12.5078 26.3928 12.6409Z" fill="#A8B8A0"/>
<path d="M26.7281 14.1001C27.2885 14.0054 28.5954 14.0679 29.2175 14.0696L33.1623 14.0748L36.9428 14.0732C37.6521 14.0738 38.3506 14.0657 39.0659 14.1016C39.5002 14.0746 39.8562 14.5247 39.8478 14.9349C39.839 15.3651 39.5504 15.6738 39.1265 15.6933C37.9423 15.7481 36.7543 15.7291 35.5702 15.7279L28.7308 15.7185C25.8192 15.7049 23.9925 15.9831 21.6494 17.9839C21.1207 18.4353 20.6553 19.0692 20.1768 19.4195C19.6033 19.3015 19.4252 19.2053 19.1696 18.672C19.2828 18.182 19.4809 17.7833 19.8268 17.4114C21.7074 15.3897 24.0179 14.3104 26.7281 14.1001Z" fill="#A8B8A0"/>
<path d="M26.9937 17.2278C27.0431 17.2239 27.0926 17.2207 27.142 17.2179C27.7043 17.1851 28.585 17.2135 29.1667 17.2148L33.1686 17.2227L37.0347 17.2239C37.7258 17.2291 38.4186 17.2223 39.1078 17.2799C40.0791 17.3611 40.1439 18.6747 39.18 18.8339C38.9206 18.8768 38.4865 18.8397 38.2099 18.8449C37.8177 18.8522 37.414 18.8416 37.0203 18.8421L31.6404 18.8521C31.0535 18.8551 30.464 18.8497 29.8772 18.8487C27.7523 18.8452 25.3485 18.6208 23.8359 20.4535C23.4578 20.9117 23.15 21.4051 22.7574 21.8584C22.4432 21.879 22.2834 21.7103 22.0462 21.5383C21.2392 20.9531 21.707 20.1461 22.2157 19.5606C23.4445 18.1464 25.1427 17.3874 26.9937 17.2278Z" fill="#A8B8A0"/>
<path d="M12.4495 28.7032C12.6913 28.6757 12.9064 28.7044 13.1291 28.8076C13.4346 28.9491 13.6802 29.2088 13.924 29.436C14.9928 30.4316 15.9894 31.7077 16.5094 33.0912C16.8007 33.8664 17.039 34.7695 17.1365 35.5913C17.2462 36.5171 17.3446 43.4291 17.1317 43.88C17.1279 43.8881 17.1238 43.8961 17.1199 43.9042C17.0435 44.0625 16.8616 44.1208 16.7089 44.188C16.3639 44.2533 15.7281 44.2353 15.682 43.7726C15.2512 39.4465 16.5823 34.5483 13.2465 31.0479C12.6375 30.4088 12.1811 30.3437 11.9664 29.4512C12.0675 29.0302 12.0423 28.8832 12.4495 28.7032Z" fill="#A8B8A0"/>
<path d="M28.501 24.6705C29.7187 24.5825 31.7516 24.6465 33.0262 24.6507C35.1117 24.6575 37.3314 24.5983 39.4016 24.6517C40.312 25.1884 40.1627 25.7585 39.4766 26.3723C38.8083 26.4731 37.5241 26.4614 36.8186 26.4556C33.4762 26.5377 29.9822 26.4199 26.6302 26.43C25.7247 26.4327 24.8105 25.5601 25.8426 24.7418C26.515 24.656 27.7662 24.6853 28.501 24.6705Z" fill="#A8B8A0"/>
<path d="M12.5904 18.2878C14.011 18.1941 17.2237 19.8581 18.4159 20.6436C20.1285 21.7722 23.7489 25.2964 24.1924 27.266C23.9919 27.7014 23.959 27.7559 23.5549 28.0082C23.0887 28.2278 22.7684 27.9318 22.5038 27.5533C21.546 26.1833 20.6519 24.7461 19.4051 23.6021C17.7385 22.055 15.7502 20.8962 13.5829 20.2088C13.1334 20.0638 12.3864 19.8312 12.1607 19.3848C11.9159 18.9005 12.1636 18.5203 12.5904 18.2878Z" fill="#A8B8A0"/>
<path d="M12.2867 32.7696C12.4072 32.7708 12.5573 32.7624 12.6648 32.8242C13.1482 33.102 13.6463 34.4767 13.7836 35.0002C14.0408 35.9809 14.0763 42.5462 13.9336 43.6662C13.9113 43.8411 13.8496 43.9759 13.7615 44.1263C13.4761 44.2456 13.1608 44.2744 12.8586 44.2085C12.2631 44.0798 12.2555 43.6223 12.2453 43.0981C12.2178 41.6771 12.2388 40.2538 12.2291 38.8322L12.197 35.7837C12.1849 34.997 12.096 33.4552 12.2867 32.7696Z" fill="#A8B8A0"/>
</svg>
