<svg width="104" height="37" viewBox="0 0 104 37" fill="none" xmlns="http://www.w3.org/2000/svg">
<path d="M96.9919 0.0336563L100.194 0.0114923C100.807 0.00933847 101.533 -0.0362001 102.127 0.0703691C102.882 0.205964 103.176 0.623082 103.184 1.36169C103.216 3.99509 103.198 6.62673 103.201 9.25934L103.22 24.6946L103.224 32.0687C103.224 32.9983 103.287 35.4269 103.102 36.1745C102.743 36.5145 102.591 36.5626 102.099 36.574C101.12 36.5735 100.312 36.6169 99.3129 36.5945C98.5234 36.5768 96.8407 36.7509 96.1906 36.3163C95.8076 36.0601 95.7989 34.9466 95.7758 34.4849C93.0344 37.1817 87.5122 37.5735 84.1151 36.0119C83.8849 35.9264 83.2127 35.5339 82.9815 35.3971C80.4816 33.9198 78.6836 31.2231 78.0197 28.3928C77.124 24.297 77.4147 19.8614 79.507 16.1379C82.3514 11.0749 88.9693 9.56816 93.9799 12.1804C94.7166 12.5646 95.1739 13.1253 95.8389 13.5302C95.9589 12.6479 95.8661 10.8761 95.884 9.88529C95.9389 6.89755 95.7681 3.73273 95.9137 0.757928C96.2603 0.295703 96.4182 0.170179 96.9919 0.0336563ZM90.6099 30.1803C98.0973 29.9795 97.642 17.4995 90.3561 17.7672C90.2885 17.7698 90.2208 17.7738 90.1531 17.7793C87.1436 18.052 85.2261 19.8929 84.8426 22.8735C84.3309 26.8501 86.3299 30.1759 90.6099 30.1803Z" fill="#A8B8A0"/>
<path d="M51.846 10.9592C52.3116 10.9067 53.2831 10.9315 53.7656 10.9347C57.0032 10.9558 60.2978 12.5567 62.5209 14.8772C63.7119 16.1206 64.9357 18.4451 65.3156 20.1283C65.5048 20.9687 65.6047 22.3599 65.5796 23.2192C65.555 24.0396 65.5242 25.3226 64.8772 25.9024C64.7208 26.0425 64.5517 26.1625 64.3389 26.1866C63.5709 26.2735 62.7577 26.2339 61.9882 26.2573C60.5731 26.3005 59.1627 26.3317 57.7487 26.3189C54.348 26.2883 50.8201 26.4411 47.4331 26.3266C47.9246 27.5742 48.3321 28.3323 49.4254 29.2013C51.4913 30.9748 54.9771 30.8647 57.2145 29.4443C59.861 27.7641 59.639 27.1704 62.3194 29.3384C63.4653 30.2027 64.9121 31.0218 63.4976 32.5521C58.5259 37.9324 49.5859 38.6034 44.1601 33.5006C39.1816 28.8185 39.0178 20.0144 43.5114 14.9796C45.644 12.5834 48.6437 11.1364 51.846 10.9592ZM47.6498 21.096C49.4183 21.1633 51.5641 21.1006 53.3754 21.1011C54.893 21.1009 57.0079 21.1574 58.4762 21.0779C57.7795 19.3427 57.1729 18.4426 55.3806 17.6635C54.7505 17.3897 53.4292 17.0915 52.7643 17.2152C49.9347 17.5139 48.6326 18.3774 47.6498 21.096Z" fill="#A8B8A0"/>
<path d="M69.6858 0.0888762C71.0567 0.0199018 72.5979 0.106825 73.9811 0.102261C75.408 0.097553 75.0906 1.94491 75.0921 2.96624V6.32504L75.0932 16.5517L75.0978 29.1778L75.1111 33.3286C75.1147 34.0909 75.2921 35.6356 74.8389 36.2656C74.5943 36.6053 74.0627 36.5955 73.6653 36.6127C72.9511 36.6402 72.1088 36.6157 71.3838 36.6159C70.5604 36.6162 69.4212 36.6672 68.6337 36.5266C68.2805 36.2216 68.078 36.0204 68.0657 35.5257C68.0164 33.5466 68.0369 31.5655 68.0251 29.5855L68.0098 15.4437L67.9918 6.41812L67.979 3.26471C67.9775 2.55313 67.9667 1.83289 68.0246 1.12274C68.0657 0.616035 68.2666 0.481343 68.6378 0.182297C68.9788 0.11022 69.3371 0.104533 69.6858 0.0888762Z" fill="#A8B8A0"/>
<path d="M34.9095 11.2198C36.2272 11.1985 37.7927 10.8644 37.8345 12.7004C37.8721 14.3571 37.8553 16.0105 37.854 17.6674L37.8648 25.9253L37.869 32.1999C37.8698 33.3041 37.8902 34.4122 37.8443 35.5149C37.8205 36.0884 37.4601 36.5329 36.8711 36.5763C35.6821 36.6638 34.4888 36.5949 33.2906 36.6349C32.501 36.7027 30.7236 36.833 30.6776 35.6828C30.6096 33.9825 30.6362 32.2625 30.6346 30.5591L30.6178 21.126L30.5972 15.5114C30.5946 14.461 30.5386 12.9666 30.6893 11.9644C31.1397 11.3616 31.4407 11.2133 32.203 11.2155C33.1048 11.2182 34.0076 11.2248 34.9095 11.2198Z" fill="#A8B8A0"/>
<path d="M0.465524 13.9172C1.15626 13.849 1.9564 14.2573 2.61986 14.553C6.37184 16.2255 8.81801 19.2194 10.3432 22.9282C10.7192 22.7855 11.4936 22.1972 11.8904 21.9308C13.2522 21.0163 15.3116 20.3583 16.948 20.2876C18.4873 20.221 20.1547 20.2937 21.7057 20.2552C22.9003 20.2256 24.0666 20.2059 25.2639 20.245C25.9057 20.2424 26.4848 20.2122 27.1326 20.2445C27.8941 20.2826 28.244 21.1448 27.7445 21.699C27.4147 22.0648 26.5986 21.958 26.1184 21.9591C24.2886 21.9631 22.4448 21.9678 20.6141 21.9711C16.7899 21.9153 13.9852 21.8685 11.0206 24.7064C9.87298 25.805 8.85682 27.6962 8.64666 29.277C8.53069 30.1492 8.55284 31.5342 8.54469 32.4484C8.5309 33.382 8.92244 36.3538 7.81477 36.6042C7.57703 36.658 6.89853 36.4947 6.87376 36.1792C6.64536 33.275 7.07628 30.2768 6.51678 27.3976C5.91261 24.28 4.2243 21.2186 1.48261 19.5059C0.862053 19.0692 -0.315295 18.8138 0.0790648 17.7935C0.465278 16.9437 1.47663 17.52 1.98865 17.7982C4.00336 18.8927 5.59331 20.5895 6.64377 22.6274C7.19087 23.6888 7.60215 24.9885 8.0566 26.1421C8.37371 25.312 9.14331 24.7047 8.79883 23.8021C7.62656 20.7307 5.5325 18.0774 2.64742 16.4537C1.93614 16.0534 1.20754 15.7827 0.504428 15.3976C-0.0056632 15.1142 -0.0989737 14.2984 0.465524 13.9172Z" fill="#A8B8A0"/>
<path d="M33.7167 0.061106C36.1252 -0.23355 38.3153 1.48343 38.6047 3.89313C38.8941 6.30282 37.1729 8.48979 34.7631 8.7741C32.3607 9.05754 30.1824 7.3422 29.8938 4.93984C29.6053 2.53746 31.3155 0.35487 33.7167 0.061106Z" fill="#A8B8A0"/>
<path d="M21.8968 0.0905916L25.411 0.0948171C25.5634 0.0952069 25.7187 0.0881608 25.8771 0.0960685C26.6702 0.135663 28.0184 -0.180342 27.894 1.08307C27.8565 1.4638 27.7009 1.58881 27.4208 1.8064C26.6123 1.9076 24.375 1.85294 23.4766 1.84979C20.9415 1.82363 18.4061 1.82148 15.8709 1.84334C11.2518 1.87556 8.07296 2.97446 4.79243 6.30176C4.50496 6.68427 4.13238 7.07494 3.79542 7.46837C3.41772 7.90945 2.95169 9.00591 2.36159 9.10442C2.13551 9.14217 1.75069 9.05052 1.58163 8.89417C1.46723 8.78832 1.38911 8.62694 1.3951 8.46478C1.46684 7.47422 3.12697 5.51858 3.76661 4.86919C9.28948 -0.737753 14.8381 0.163617 21.8968 0.0905916Z" fill="#A8B8A0"/>
<path d="M23.4929 23.3706C24.6174 23.3482 25.7668 23.3361 26.8902 23.3683C28.0168 23.4006 28.4547 24.3239 27.5118 25.1042C26.1042 25.2759 24.6249 25.1859 23.208 25.1923C21.7753 25.1988 20.3561 25.2182 18.9167 25.1855C16.7483 25.1364 15.036 25.2357 13.3755 26.848C11.4102 28.7561 11.617 31.0816 11.6245 33.6294C11.6312 34.2924 11.6754 35.2145 11.6053 35.8443C11.4958 36.8291 9.91944 36.8984 9.9882 35.5838C10.1735 32.0407 9.2451 28.647 11.9701 25.7862C15.1057 22.4945 19.4099 23.5585 23.4929 23.3706Z" fill="#A8B8A0"/>
<path d="M14.431 4.98656C14.0318 4.9703 13.0326 5.20938 12.6198 5.29112C11.1205 5.5882 9.2062 6.63635 8.00475 7.60081C7.39741 8.08897 6.85201 8.64963 6.38074 9.2702C6.18284 9.52876 5.99606 9.83804 5.7877 10.0782C5.41339 10.5095 4.39184 10.2266 4.32822 9.65943C4.28257 9.2522 4.79974 8.58302 5.01102 8.24789C6.51189 6.25445 8.75867 4.7225 11.1281 3.9465C13.018 3.32757 15.0551 3.28359 17.0173 3.28587L21.3478 3.29267L24.9462 3.28891C25.6224 3.28766 26.4329 3.24637 27.0905 3.33886C28.2287 3.49897 28.3147 4.80707 26.9851 4.92291C26.5219 4.86189 25.3263 4.88686 24.8205 4.88476C23.3558 4.8762 21.891 4.87563 20.4263 4.88307L17.1272 4.87143C16.4621 4.86835 15.063 4.85348 14.431 4.98656Z" fill="#A8B8A0"/>
<path d="M14.7663 6.44576C15.3266 6.35104 16.6335 6.4135 17.2556 6.41524L21.2004 6.42047L24.9809 6.41888C25.6903 6.41945 26.3888 6.41129 27.1041 6.44724C27.5383 6.42027 27.8943 6.87037 27.8859 7.28058C27.8772 7.71078 27.5885 8.0194 27.1647 8.03899C25.9804 8.09376 24.7924 8.07478 23.6083 8.07355L16.769 8.06411C13.8574 8.05053 12.0306 8.32873 9.68752 10.3295C9.15888 10.7809 8.6934 11.4149 8.21495 11.7651C7.6414 11.6471 7.46334 11.551 7.20776 11.0176C7.32092 10.5277 7.51902 10.129 7.86499 9.75709C9.74555 7.73535 12.056 6.65606 14.7663 6.44576Z" fill="#A8B8A0"/>
<path d="M15.0319 9.57344C15.0813 9.56959 15.1307 9.56631 15.1802 9.56354C15.7425 9.53072 16.6232 9.55918 17.2049 9.56041L21.2068 9.56831L25.0729 9.56959C25.764 9.57477 26.4568 9.56795 27.146 9.62554C28.1172 9.70672 28.1821 11.0203 27.2181 11.1796C26.9587 11.2225 26.5247 11.1854 26.248 11.1905C25.8559 11.1978 25.4522 11.1873 25.0584 11.1877L19.6785 11.1977C19.0917 11.2008 18.5021 11.1953 17.9154 11.1944C15.7905 11.1909 13.3866 10.9665 11.8741 12.7991C11.4959 13.2573 11.1881 13.7507 10.7956 14.204C10.4814 14.2247 10.3215 14.0559 10.0843 13.8839C9.2774 13.2988 9.74518 12.4917 10.2539 11.9062C11.4826 10.4921 13.1809 9.73308 15.0319 9.57344Z" fill="#A8B8A0"/>
<path d="M0.487604 21.0489C0.729493 21.0213 0.944584 21.05 1.16724 21.1532C1.47278 21.2948 1.71832 21.5545 1.96216 21.7816C3.0309 22.7772 4.02759 24.0533 4.54755 25.4369C4.83886 26.212 5.07717 27.1151 5.17463 27.9369C5.28435 28.8627 5.38278 35.7747 5.16986 36.2257C5.16607 36.2338 5.16196 36.2418 5.15807 36.2498C5.08163 36.4081 4.89972 36.4664 4.74709 36.5337C4.40205 36.5989 3.7662 36.581 3.72012 36.1182C3.28933 31.7922 4.62046 26.894 1.28463 23.3935C0.675635 22.7544 0.21928 22.6894 0.0045166 21.7968C0.105636 21.3759 0.0804929 21.2288 0.487604 21.0489Z" fill="#A8B8A0"/>
<path d="M16.5392 17.0162C17.7568 16.9281 19.7898 16.9922 21.0644 16.9964C23.1498 17.0032 25.3695 16.9439 27.4397 16.9973C28.3502 17.5341 28.2008 18.1041 27.5147 18.7179C26.8465 18.8187 25.5623 18.8071 24.8568 18.8012C21.5144 18.8834 18.0204 18.7655 14.6684 18.7756C13.7628 18.7784 12.8486 17.9057 13.8807 17.0874C14.5532 17.0016 15.8043 17.031 16.5392 17.0162Z" fill="#A8B8A0"/>
<path d="M0.628573 10.6334C2.04911 10.5397 5.26189 12.2037 6.45401 12.9893C8.16662 14.1178 11.787 17.642 12.2306 19.6116C12.0301 20.0471 11.9972 20.1015 11.5931 20.3538C11.1269 20.5735 10.8066 20.2775 10.5419 19.899C9.58412 18.529 8.69003 17.0917 7.44326 15.9477C5.77669 14.4006 3.78836 13.2418 1.62101 12.5544C1.17156 12.4095 0.424567 12.1768 0.198884 11.7304C-0.0459541 11.2462 0.201765 10.8659 0.628573 10.6334Z" fill="#A8B8A0"/>
<path d="M0.32488 25.1152C0.445348 25.1165 0.595404 25.108 0.702983 25.1698C1.18631 25.4476 1.68449 26.8223 1.82178 27.3459C2.07892 28.3265 2.11445 34.8918 1.97177 36.0119C1.94948 36.1868 1.88772 36.3215 1.79967 36.472C1.51422 36.5913 1.199 36.62 0.8967 36.5542C0.30124 36.4254 0.293642 35.968 0.28349 35.4437C0.255984 34.0228 0.276907 32.5995 0.267218 31.1779L0.235184 28.1293C0.22309 27.3427 0.134168 25.8009 0.32488 25.1152Z" fill="#A8B8A0"/>
</svg>
